<svg xmlns="http://www.w3.org/2000/svg" viewBox="0 0 480 420" width="480" height="420" role="img" aria-label="Folio holding a big key in front of a shield">
  <ellipse cx="240" cy="396" rx="150" ry="14" fill="#15130F" opacity=".10"/>
  <path d="M240 30l130 40v110c0 76-56 136-130 166-74-30-130-90-130-166V70z" fill="#E9EDFC"/>
  <path d="M240 54l108 33v93c0 64-46 116-108 144-62-28-108-80-108-144V87z" fill="#FFFFFF" opacity=".6"/>
  <g transform="translate(154 96) scale(1.0)">
    <path d="M14 0h118l40 40v242a14 14 0 0 1-14 14H14A14 14 0 0 1 0 282V14A14 14 0 0 1 14 0z" fill="#FFFFFF"/>
    <path d="M132 0v40h40z" fill="#EDE9E1"/>
    <path d="M132 0l40 40" stroke="#D3CEC3" stroke-width="2" stroke-linecap="round"/>
    <path d="M4 240v42a10 10 0 0 0 10 10h118a10 10 0 0 0 10-10v-60c-30 26-90 36-138 18z" fill="#F4F1EA"/>
    <ellipse cx="54" cy="120" rx="9" ry="12" fill="#15130F"/><ellipse cx="112" cy="120" rx="9" ry="12" fill="#15130F"/><circle cx="57" cy="115" r="3" fill="#FFFFFF"/><circle cx="115" cy="115" r="3" fill="#FFFFFF"/><path d="M60 158c14 18 32 18 46 0" stroke="#15130F" stroke-width="5" stroke-linecap="round" fill="none"/><ellipse cx="34" cy="150" rx="10" ry="6" fill="#F2B8A2"/><ellipse cx="132" cy="150" rx="10" ry="6" fill="#F2B8A2"/>
    <path d="M30 60h36M30 74h60" stroke="#D3CEC3" stroke-width="4" stroke-linecap="round"/>
  </g>
  <g stroke="#15130F" stroke-width="7" stroke-linecap="round"><path d="M200 392v30M280 392v30"/></g>
  <path d="M180 424h32M266 424h32" stroke="#15130F" stroke-width="9" stroke-linecap="round"/>
  <g stroke="#15130F" stroke-width="7" stroke-linecap="round" fill="none"><path d="M154 266c-30 0-40-30-30-62"/><path d="M326 270c30 0 46-24 38-58"/></g>
  <g transform="translate(124 204) rotate(-40)">
    <circle r="30" fill="#FFFFFF" stroke="#2F4BE0" stroke-width="10"/>
    <circle r="7" fill="#2F4BE0"/>
    <path d="M30 0h110M110 0v24M90 0v18" stroke="#2F4BE0" stroke-width="12" stroke-linecap="round"/>
  </g>
  <circle cx="364" cy="212" r="14" fill="#15130F"/>
</svg>
